<?xml version="1.0" encoding="utf-8"?>
<!-- Generator: Adobe Illustrator 19.1.0, SVG Export Plug-In . SVG Version: 6.00 Build 0)  -->
<svg version="1.1" id="Layer_1" xmlns="http://www.w3.org/2000/svg" xmlns:xlink="http://www.w3.org/1999/xlink" x="0px" y="0px"
	 viewBox="0 0 72 120.5" style="enable-background:new 0 0 72 120.5;" xml:space="preserve">
<style type="text/css">
	.st0{fill:#666666;stroke:#FFFFFF;stroke-miterlimit:10;}
	.st1{fill:#00A550;}
	.st2{fill:#6B6B6B;}
	.st3{fill:#999999;}
	.st4{fill:#FFFFFF;stroke:#666666;stroke-miterlimit:10;}
	.st5{fill:#ED1C24;}
	.st6{fill:#FFFFFF;}
</style>
<g>
	<path class="st0" d="M46.5,111.1h-5.6l0-0.8c-1.5,0.2-2.9,0.3-4.5,0.3c-1,0-1.9-0.2-2.8-0.5c-0.2,0-0.5,0-0.7,0v0.9h-4.6
		c-5.2,0-9.5,4.2-9.5,9.5h37C55.9,115.3,51.7,111.1,46.5,111.1z"/>
</g>
<g>
	<g>
		<path class="st1" d="M56.4,18.7v9l6.5-6.2C61.2,19.9,58.9,18.9,56.4,18.7z"/>
		<path class="st1" d="M55.5,41V29.8l-8,7.6C49.5,39.6,52.3,41,55.5,41z"/>
		<path class="st1" d="M55.5,28v-9.3c-2.7,0-5.2,1-7.1,2.6L55.5,28z"/>
		<path class="st2" d="M44.4,29.6c0,0.1,0,0.2,0,0.2c0,2.6,0.9,5,2.4,6.9l7.6-7.2H44.4z"/>
		<path class="st1" d="M56.4,40.9c3-0.2,5.6-1.6,7.5-3.7l-7.5-7.1V40.9z"/>
		<path class="st1" d="M47.7,21.9c-1.8,1.8-3,4.1-3.2,6.7h10.4L47.7,21.9z"/>
		<path class="st1" d="M63.6,22.1l-6.9,6.5h9.9v0.9h-9.5l7.3,6.9c1.4-1.9,2.2-4.2,2.2-6.7C66.7,26.9,65.5,24.1,63.6,22.1z"/>
	</g>
	<path class="st3" d="M55.6,13.4c-9.1,0-16.4,7.4-16.4,16.4c0,9.1,7.3,16.4,16.4,16.4c9.1,0,16.4-7.4,16.4-16.4
		C72,20.8,64.6,13.4,55.6,13.4z M55.6,42.8c-7.2,0-13-5.8-13-13c0-0.1,0-0.2,0-0.3h-0.1v-1h0.1c0.6-6.6,6.2-11.7,12.9-11.7
		c7.2,0,13,5.8,13,13C68.6,37,62.7,42.8,55.6,42.8z"/>
</g>
<g>
	<path class="st2" d="M26.4,15.3l2.4,13h2.5l-2.5-13.4c0-0.1-0.6-3.5-5.1-4.7c-3.8-1-18.9-6.3-19.1-6.4C3.9,3.6,3.2,4,3,4.6
		C2.8,5.3,3.2,6,3.8,6.2c0.8,0.3,15.4,5.4,19.2,6.4C26,13.3,26.3,15.2,26.4,15.3z"/>
</g>
<path class="st4" d="M50.3,112.3c0,2.8-2.2,5-5,5h-14c-2.8,0-5-2.2-5-5c0,0,1.8-24,0.9-40.8c-0.8-16.7-4.9-40.2-4.9-40.2
	c0-2.8,2.2-3,5-3h22c2.8,0,5,0.2,5,3c0,0-4.5,25.2-5,40.7C49,83.3,50.3,112.3,50.3,112.3z"/>
<path class="st5" d="M49,44.3c-1.2,9-2.4,19.7-2.7,27.5c-0.3,11.3,1,37.4,1,37.4c0,2.8-2.2,5.1-5,5.1h-8c-2.8,0-5-2.2-5-5
	c0,0,1.8-21.2,0.9-38c-0.4-8.4-1.7-19-2.8-27H49z"/>
<g>
	<path class="st6" d="M36.2,68.5c-0.6,0-1.1-0.5-1.2-1.1l-3.6-26c-0.1-0.7,0.4-1.3,1.1-1.3c0.7-0.1,1.3,0.4,1.3,1.1l3.6,26
		c0.1,0.7-0.4,1.3-1.1,1.3C36.3,68.5,36.3,68.5,36.2,68.5z"/>
</g>
</svg>
