<?xml version="1.0" encoding="utf-8"?>
<!-- Generator: Adobe Illustrator 19.1.0, SVG Export Plug-In . SVG Version: 6.00 Build 0)  -->
<svg version="1.1" id="Layer_1" xmlns="http://www.w3.org/2000/svg" xmlns:xlink="http://www.w3.org/1999/xlink" x="0px" y="0px"
	 viewBox="0 0 82.3 32.4" style="enable-background:new 0 0 82.3 32.4;" xml:space="preserve">
<style type="text/css">
	.st0{fill:#205F30;}
	.st1{fill:#FFFFFF;}
	.st2{fill:none;stroke:#6B6C6C;stroke-width:0.9451;stroke-linecap:round;stroke-linejoin:round;stroke-miterlimit:10;}
	.st3{fill:none;stroke:#205F30;stroke-width:0.7088;stroke-miterlimit:10;}
	.st4{fill:#DF1F26;}
	.st5{fill:none;stroke:#205F30;stroke-width:0.25;stroke-miterlimit:10;}
	.st6{fill:#DF1F26;stroke:#205F30;stroke-width:0.25;stroke-miterlimit:10;}
</style>
<g>
	<path class="st0" d="M4.7,25.1c0,0,9.5,7.8,22.4,7.1c12.8-0.8,33.4-1.3,50-16.2C93.6,1,11.1,18,4.7,25.1"/>
	<path class="st1" d="M81.6,9.5c0.9,6.8-16.5,14.8-38.8,17.8c-22.3,3-41.2-0.2-42.1-7C-0.2,13.4,17.2,5.5,39.5,2.5
		C61.8-0.5,80.7,2.7,81.6,9.5"/>
	<ellipse transform="matrix(0.9913 -0.1318 0.1318 0.9913 -1.6015 5.5527)" class="st2" cx="41.1" cy="14.9" rx="40.8" ry="12.5"/>
	<ellipse transform="matrix(0.9913 -0.1318 0.1318 0.9913 -1.7226 5.5564)" class="st3" cx="41.1" cy="15.8" rx="33.5" ry="9.5"/>
	<path class="st4" d="M37.1,9.9C37,9.6,36.9,9.3,36.8,9c-0.9-3.5,1.7-7.1,4.7-8.3c6.1-2.5,18.8,6.4,19.1,10.1
		c0.3,3.7-8.1,0.1-10.7-0.6c-2.6-0.7-3.5,2.2-6.3,1.7C41.3,11.5,38.3,12.2,37.1,9.9"/>
	<path class="st5" d="M37.1,9.9C37,9.6,36.9,9.3,36.8,9c-0.9-3.5,1.7-7.1,4.7-8.3c6.1-2.5,18.8,6.4,19.1,10.1
		c0.3,3.7-8.1,0.1-10.7-0.6c-2.6-0.7-3.5,2.2-6.3,1.7C41.3,11.5,38.3,12.2,37.1,9.9z"/>
	<path class="st1" d="M37.7,9.7c-0.1-0.2-0.2-0.4-0.3-0.7c-0.9-3,1.4-5.9,4.1-6.8C46.9,0.3,58.7,7.9,59,11c0.4,3.1-7.3-0.1-9.8-0.8
		c-2.4-0.6-3.1,1.8-5.7,1.3C41.5,11.2,38.8,11.7,37.7,9.7"/>
	<path class="st5" d="M37.7,9.7c-0.1-0.2-0.2-0.4-0.3-0.7c-0.9-3,1.4-5.9,4.1-6.8C46.9,0.3,58.7,7.9,59,11c0.4,3.1-7.3-0.1-9.8-0.8
		c-2.4-0.6-3.1,1.8-5.7,1.3C41.5,11.2,38.8,11.7,37.7,9.7z"/>
	<path class="st4" d="M29.2,12.9c-0.1-0.3-0.3-0.6-0.3-0.9c-1-3.8,1.8-7.7,5-9c6.6-2.7,20.2,6.9,20.6,10.9c0.3,4-8.7,0.1-11.5-0.7
		c-2.8-0.8-3.7,2.4-6.7,1.9C33.7,14.7,30.4,15.4,29.2,12.9"/>
	<path class="st5" d="M29.2,12.9c-0.1-0.3-0.3-0.6-0.3-0.9c-1-3.8,1.8-7.7,5-9c6.6-2.7,20.2,6.9,20.6,10.9c0.3,4-8.7,0.1-11.5-0.7
		c-2.8-0.8-3.7,2.4-6.7,1.9C33.7,14.7,30.4,15.4,29.2,12.9z"/>
	<path class="st1" d="M29.7,12.8c-0.1-0.2-0.2-0.5-0.3-0.8c-1-3.2,1.5-6.3,4.4-7.4c5.9-2.1,18.6,6.2,19,9.5
		c0.4,3.3-7.9-0.1-10.5-0.8c-2.6-0.7-3.4,1.9-6.1,1.4C33.9,14.3,31,14.9,29.7,12.8"/>
	<path class="st5" d="M29.7,12.8c-0.1-0.2-0.2-0.5-0.3-0.8c-1-3.2,1.5-6.3,4.4-7.4c5.9-2.1,18.6,6.2,19,9.5
		c0.4,3.3-7.9-0.1-10.5-0.8c-2.6-0.7-3.4,1.9-6.1,1.4C33.9,14.3,31,14.9,29.7,12.8z"/>
	<path class="st6" d="M20.4,14.8c-0.1-0.3-0.3-0.6-0.3-0.9c-1-3.8,1.8-7.7,5-9c6.6-2.7,20.2,6.9,20.6,10.9c0.3,4-8.7,0.1-11.5-0.7
		c-2.8-0.8-3.7,2.4-6.7,1.9C25,16.5,21.7,17.3,20.4,14.8"/>
	<path class="st1" d="M21,14.7c-0.1-0.2-0.2-0.5-0.3-0.8c-1-3.2,1.5-6.3,4.4-7.4c5.9-2.1,18.6,6.2,19,9.5c0.4,3.3-7.9-0.1-10.5-0.8
		c-2.6-0.7-3.4,1.9-6.1,1.4C25.2,16.2,22.2,16.8,21,14.7"/>
	<path class="st5" d="M21,14.7c-0.1-0.2-0.2-0.5-0.3-0.8c-1-3.2,1.5-6.3,4.4-7.4c5.9-2.1,18.6,6.2,19,9.5c0.4,3.3-7.9-0.1-10.5-0.8
		c-2.6-0.7-3.4,1.9-6.1,1.4C25.2,16.2,22.2,16.8,21,14.7z"/>
	<path class="st6" d="M13,17.9c-0.1-0.3-0.3-0.6-0.3-0.9c-1-3.8,1.8-7.7,5-9c6.6-2.7,20.2,6.9,20.6,10.9c0.3,4-8.7,0.1-11.5-0.7
		c-2.8-0.8-3.7,2.4-6.7,1.9C17.5,19.6,14.3,20.4,13,17.9"/>
	<path class="st5" d="M13,17.9c-0.1-0.3-0.3-0.6-0.3-0.9c-1-3.8,1.8-7.7,5-9c6.6-2.7,20.2,6.9,20.6,10.9c0.3,4-8.7,0.1-11.5-0.7
		c-2.8-0.8-3.7,2.4-6.7,1.9C17.5,19.6,14.3,20.4,13,17.9z"/>
	<path class="st1" d="M13.5,17.8c-0.1-0.2-0.2-0.5-0.3-0.8c-1-3.2,1.5-6.3,4.4-7.4c5.9-2.1,18.6,6.2,19,9.5
		c0.4,3.3-7.9-0.1-10.5-0.8c-2.6-0.7-3.4,1.9-6.1,1.4C17.7,19.3,14.8,19.9,13.5,17.8"/>
	<path class="st5" d="M13.5,17.8c-0.1-0.2-0.2-0.5-0.3-0.8c-1-3.2,1.5-6.3,4.4-7.4c5.9-2.1,18.6,6.2,19,9.5
		c0.4,3.3-7.9-0.1-10.5-0.8c-2.6-0.7-3.4,1.9-6.1,1.4C17.7,19.3,14.8,19.9,13.5,17.8z"/>
	<path class="st4" d="M47.7,13.6c-0.1-0.2-0.2-0.5-0.3-0.8c-0.9-3.5,1.7-7.1,4.7-8.3c6.1-2.5,18.8,6.4,19.1,10.1
		c0.3,3.7-8.1,0.1-10.7-0.6c-2.6-0.7-3.5,2.2-6.3,1.7C51.9,15.2,48.9,15.9,47.7,13.6"/>
	<path class="st5" d="M47.7,13.6c-0.1-0.2-0.2-0.5-0.3-0.8c-0.9-3.5,1.7-7.1,4.7-8.3c6.1-2.5,18.8,6.4,19.1,10.1
		c0.3,3.7-8.1,0.1-10.7-0.6c-2.6-0.7-3.5,2.2-6.3,1.7C51.9,15.2,48.9,15.9,47.7,13.6z"/>
	<path class="st1" d="M48.3,13.5C48.1,13.3,48,13,48,12.8c-0.9-3,1.4-5.9,4.1-6.8c5.5-1.9,17.2,5.7,17.6,8.8
		c0.4,3.1-7.3-0.1-9.8-0.8c-2.4-0.6-3.1,1.8-5.7,1.3C52.1,14.9,49.4,15.4,48.3,13.5"/>
	<path class="st5" d="M48.3,13.5C48.1,13.3,48,13,48,12.8c-0.9-3,1.4-5.9,4.1-6.8c5.5-1.9,17.2,5.7,17.6,8.8
		c0.4,3.1-7.3-0.1-9.8-0.8c-2.4-0.6-3.1,1.8-5.7,1.3C52.1,14.9,49.4,15.4,48.3,13.5z"/>
	<path class="st6" d="M39.8,16.7c-0.1-0.3-0.3-0.6-0.3-0.9c-1-3.8,1.8-7.7,5-9C51,4.1,64.7,13.6,65,17.7c0.3,4-8.7,0.1-11.5-0.7
		c-2.8-0.8-3.7,2.4-6.7,1.9C44.3,18.4,41,19.2,39.8,16.7"/>
	<path class="st1" d="M40.3,16.5c-0.1-0.2-0.2-0.5-0.3-0.8c-1-3.2,1.5-6.3,4.4-7.4c5.9-2.1,18.6,6.2,19,9.5
		c0.4,3.3-7.9-0.1-10.5-0.8c-2.6-0.7-3.4,1.9-6.1,1.4C44.5,18.1,41.5,18.6,40.3,16.5"/>
	<path class="st5" d="M40.3,16.5c-0.1-0.2-0.2-0.5-0.3-0.8c-1-3.2,1.5-6.3,4.4-7.4c5.9-2.1,18.6,6.2,19,9.5
		c0.4,3.3-7.9-0.1-10.5-0.8c-2.6-0.7-3.4,1.9-6.1,1.4C44.5,18.1,41.5,18.6,40.3,16.5z"/>
	<path class="st4" d="M31,18.5c-0.1-0.3-0.3-0.6-0.3-0.9c-1-3.8,1.8-7.7,5-9c6.6-2.7,20.2,6.9,20.6,10.9c0.3,4-8.7,0.1-11.5-0.7
		c-2.8-0.8-3.7,2.4-6.7,1.9C35.5,20.3,32.3,21,31,18.5"/>
	<path class="st5" d="M31,18.5c-0.1-0.3-0.3-0.6-0.3-0.9c-1-3.8,1.8-7.7,5-9c6.6-2.7,20.2,6.9,20.6,10.9c0.3,4-8.7,0.1-11.5-0.7
		c-2.8-0.8-3.7,2.4-6.7,1.9C35.5,20.3,32.3,21,31,18.5z"/>
	<path class="st1" d="M31.6,18.4c-0.1-0.2-0.2-0.5-0.3-0.8c-1-3.2,1.5-6.3,4.4-7.4c5.9-2.1,18.6,6.2,19,9.5
		c0.4,3.3-7.9-0.1-10.5-0.8c-2.6-0.7-3.4,1.9-6.1,1.4C35.7,19.9,32.8,20.5,31.6,18.4"/>
	<path class="st5" d="M31.6,18.4c-0.1-0.2-0.2-0.5-0.3-0.8c-1-3.2,1.5-6.3,4.4-7.4c5.9-2.1,18.6,6.2,19,9.5
		c0.4,3.3-7.9-0.1-10.5-0.8c-2.6-0.7-3.4,1.9-6.1,1.4C35.7,19.9,32.8,20.5,31.6,18.4z"/>
	<path class="st4" d="M23.6,21.6c-0.1-0.3-0.3-0.6-0.3-0.9c-1-3.8,1.8-7.7,5-9c6.6-2.7,20.2,6.9,20.6,10.9c0.3,4-8.7,0.1-11.5-0.7
		c-2.8-0.8-3.7,2.4-6.7,1.9C28.1,23.4,24.8,24.1,23.6,21.6"/>
	<path class="st5" d="M23.6,21.6c-0.1-0.3-0.3-0.6-0.3-0.9c-1-3.8,1.8-7.7,5-9c6.6-2.7,20.2,6.9,20.6,10.9c0.3,4-8.7,0.1-11.5-0.7
		c-2.8-0.8-3.7,2.4-6.7,1.9C28.1,23.4,24.8,24.1,23.6,21.6z"/>
	<path class="st1" d="M24.1,21.5c-0.1-0.2-0.2-0.5-0.3-0.8c-1-3.2,1.5-6.3,4.4-7.4c5.9-2.1,18.6,6.2,19,9.5
		c0.4,3.3-7.9-0.1-10.5-0.8c-2.6-0.7-3.4,1.9-6.1,1.4C28.3,23.1,25.3,23.6,24.1,21.5"/>
	<path class="st5" d="M24.1,21.5c-0.1-0.2-0.2-0.5-0.3-0.8c-1-3.2,1.5-6.3,4.4-7.4c5.9-2.1,18.6,6.2,19,9.5
		c0.4,3.3-7.9-0.1-10.5-0.8c-2.6-0.7-3.4,1.9-6.1,1.4C28.3,23.1,25.3,23.6,24.1,21.5z"/>
</g>
</svg>
