<?xml version="1.0" encoding="utf-8"?>
<!-- Generator: Adobe Illustrator 19.1.0, SVG Export Plug-In . SVG Version: 6.00 Build 0)  -->
<svg version="1.1" id="Layer_1" xmlns="http://www.w3.org/2000/svg" xmlns:xlink="http://www.w3.org/1999/xlink" x="0px" y="0px"
	 viewBox="0 0 47.3 71.3" style="enable-background:new 0 0 47.3 71.3;" xml:space="preserve">
<style type="text/css">
	.st0{fill:#666666;}
	.st1{fill:#FFFFFF;}
	.st2{fill:#145E10;}
	.st3{fill:#999999;}
	.st4{fill:#6B6B6B;}
	.st5{fill:#ED1C24;}
</style>
<g>
	<g>
		<path class="st0" d="M35,15.3c0-7-5.9-13.2-13.2-13.2c-7.3,0-13.2,6.2-13.2,13.2H35z"/>
		<path class="st1" d="M35,16.3H8.7c-0.4,0-0.8-0.5-0.8-0.9c0-7.7,6.3-14,14-14c7.7,0,14,6.4,14,14.1C35.8,15.9,35.4,16.3,35,16.3z
			 M9.5,14.3h24.7c-0.4-6-5.8-11.6-12.3-11.6C15.3,2.8,9.9,8.3,9.5,14.3z"/>
	</g>
	<g>
		<path class="st2" d="M43.2,23.3c0-8-5.9-13.2-13.2-13.2c-7.3,0-13.2,5.2-13.2,13.2H43.2z"/>
		<path class="st1" d="M44,24.3H16v-1.1c0-7.8,6.2-14,14-14c7.8,0,14,6.1,14,14V24.3z M17.7,22.3h24.7c-0.4-6-5.7-11.6-12.3-11.6
			C23.4,10.8,18.1,16.3,17.7,22.3z"/>
	</g>
	<g>
		<path class="st3" d="M31,23.3c0-7-5.9-13.2-13.2-13.2S4.7,16.3,4.7,23.3H31z"/>
		<path class="st1" d="M31,24.3H4.7c-0.4,0-0.8-0.5-0.8-1c0-7.7,6.3-14,14-14c7.7,0,14,6.4,14,14.1C31.8,23.9,31.4,24.3,31,24.3z
			 M5.5,22.3h24.7c-0.4-6-5.8-11.6-12.3-11.6S5.9,16.3,5.5,22.3z"/>
	</g>
	<g>
		<path class="st4" d="M22,49.3c0,0,0,12.7,0,14c0,1.4-2.5,7-8.6,7h20.5c0,0-8.2-2.8-8.2-7.4c0-4.6,0-13.6,0-13.6H22z"/>
		<path class="st4" d="M33.9,71.3H13.4c-0.4,0-0.8-0.4-0.8-0.8c0-0.4,0.4-0.8,0.8-0.8c5.6,0,8.6-5.3,8.6-6.4V49.9
			c0-0.4,0.3-1.5,0.8-1.5h2.9c0.2,0,0.4,0.5,0.6,0.6c0.1,0.2,0.2,0.5,0.2,0.8c0,0.1,0,8.9,0,13.5c0,3.3,5.6,5.9,7.7,6.6
			c0.4,0.1,0.6,0.5,0.5,0.9C34.6,71,34.3,71.3,33.9,71.3z M18.8,69.3h11.3c-2.4-1-5.2-3.5-5.3-6.4c0-3.8,0-9.6,0-12.6H23v13
			C23,64.7,21.9,68.3,18.8,69.3z"/>
	</g>
	<g>
		<path class="st5" d="M2.9,26.3h41.3c0,0,1.5,9.7-6.2,9.7c-7.7,0-7.2,3-7.2,4.5c0,1.5,0.1,8.8-6.4,8.8c-6.5,0-7.1-6.3-7.2-8.9
			c-0.1-2.6-2-4-7.4-4C4.4,36.3,2.5,28.3,2.9,26.3z"/>
		<path class="st5" d="M24.4,50.1c-5,0-7.7-3.3-8-9.7c-0.1-1.7-0.9-3.4-6.6-3.4c-1.9,0-3.6-0.8-4.9-2.4c-2.3-2.7-3-6.7-2.7-8.6
			l0.1-0.6h42.7L45,26c0,0.2,0.8,5.5-1.9,8.6c-1.2,1.4-2.9,2.1-5.1,2.1c-2.9,0-4.9,0.5-5.8,1.4c-0.6,0.6-0.6,1.4-0.6,2.1l0,0.3
			c0,3.6-0.8,6.2-2.4,7.8C28,49.4,26.4,50.1,24.4,50.1z M3.6,27.3c0,1,0.7,4.4,2.4,6.4c1,1.2,2.3,1.7,3.7,1.7c3.4,0,8,0.4,8.2,4.9
			c0.2,3.5,1,8.1,6.4,8.1c1.5,0,2.8-0.5,3.7-1.4c1.3-1.3,2-3.5,2-6.6l0-0.3c0-0.8,0-2.1,1-3.2c1.2-1.2,3.5-1.8,6.9-1.8
			c1.7,0,3-0.3,3.9-1.3c1.7-2,1.7-5.4,1.6-6.4H3.6z"/>
	</g>
</g>
</svg>
