<?xml version="1.0" encoding="utf-8"?>
<!-- Generator: Adobe Illustrator 19.1.0, SVG Export Plug-In . SVG Version: 6.00 Build 0)  -->
<svg version="1.1" id="Layer_1" xmlns="http://www.w3.org/2000/svg" xmlns:xlink="http://www.w3.org/1999/xlink" x="0px" y="0px"
	 viewBox="0 0 66 48" style="enable-background:new 0 0 66 48;" xml:space="preserve">
<style type="text/css">
	.st0{fill:#E61E25;}
	.st1{fill:#FFFFFF;}
	.st2{fill:#6B6C6C;}
	.st3{fill:#225F30;}
	.st4{clip-path:url(#SVGID_2_);}
	.st5{fill:#333333;}
</style>
<g>
	<g>
		<path class="st0" d="M58.1,36.6c-5.8,6.6-14.9,9.7-25.3,9.7c-10.7,0-20.2-3.4-25.9-10.5V16.9h51.8L58.1,36.6z"/>
		<path class="st0" d="M58.7,36.6c0,0.1-0.1,0.3-0.1,0.4c-5.6,6.4-14.7,9.9-25.7,9.9c-11.4,0-20.8-3.8-26.4-10.7
			c-0.1-0.1-0.1-0.2-0.1-0.4V16.9c0-0.3,0.3-0.6,0.6-0.6h51.8c0.2,0,0.3,0.1,0.4,0.2c0.1,0.1,0.2,0.3,0.2,0.4 M7.5,35.6
			c5.4,6.5,14.4,10.1,25.3,10.1c10.6,0,19.3-3.3,24.7-9.4l0.6-18.8H7.5V35.6z"/>
	</g>
	<g>
		<ellipse class="st1" cx="32.8" cy="16.5" rx="26.1" ry="14.1"/>
		<path class="st2" d="M32.8,31.2c-14.7,0-26.7-6.6-26.7-14.7c0-8.1,12-14.7,26.7-14.7c14.7,0,26.7,6.6,26.7,14.7
			C59.5,24.6,47.5,31.2,32.8,31.2z M32.8,3C18.8,3,7.3,9.1,7.3,16.5S18.8,30,32.8,30c14.1,0,25.5-6.1,25.5-13.5S46.9,3,32.8,3z"/>
	</g>
	<g>
		<path class="st3" d="M55.7,18.9c-1,3.2-4.5,4.9-7.3,6.5c-4.7,2.6-10.2,3.2-15.6,3.2c-9.4,0-17-2.9-21.7-7.5
			c-4.7-4.6,0.2-12.4,3.6-14.5c3.4-2,36.6,1.8,36.6,1.8s5.2-1.4,4.7,8.1C55.9,17.4,55.9,18.1,55.7,18.9z"/>
	</g>
	<g>
		<ellipse class="st1" cx="32.8" cy="13.8" rx="22.5" ry="12.2"/>
		<path class="st3" d="M32.8,26.6c-12.7,0-23-5.7-23-12.8C9.8,6.7,20.1,1,32.8,1c12.7,0,23,5.7,23,12.8
			C55.9,20.8,45.5,26.6,32.8,26.6z M32.8,2.2C20.8,2.2,11,7.4,11,13.8c0,6.4,9.8,11.6,21.9,11.6c12.1,0,21.9-5.2,21.9-11.6
			C54.7,7.4,44.9,2.2,32.8,2.2z"/>
	</g>
	<g>
		<path class="st2" d="M52,19.5c-4.5-2.9-11.4-4.7-19.2-4.7c-7.8,0-14.8,1.8-19.2,4.7c0,0,6.5,6.4,19.2,5.9
			C48.3,24.7,52,19.5,52,19.5z"/>
	</g>
	<g>
		<defs>
			<ellipse id="SVGID_1_" cx="33" cy="13.2" rx="22.5" ry="12.2"/>
		</defs>
		<clipPath id="SVGID_2_">
			<use xlink:href="#SVGID_1_"  style="overflow:visible;"/>
		</clipPath>
		<g class="st4">
			<g>
				<path class="st1" d="M51.1,20.7c0,3.9-4.5,7.2-10.1,7.2s-10.1-3.2-10.1-7.2c0-3.9,4.5-7.1,10.1-7.1S51.1,16.7,51.1,20.7"/>
			</g>
			<g>
				<path class="st5" d="M41,28c-5.6,0-10.2-3.3-10.2-7.3c0-4,4.6-7.3,10.2-7.3c5.6,0,10.2,3.3,10.2,7.3C51.2,24.7,46.6,28,41,28z
					 M41,13.7c-5.5,0-9.9,3.1-9.9,7c0,3.9,4.5,7,9.9,7c5.5,0,9.9-3.1,9.9-7C50.9,16.8,46.5,13.7,41,13.7z"/>
			</g>
			<g>
				<path class="st5" d="M39.9,16c0,0,4,3,4.1,5.6c0,0,0.8-2.7-2.8-5.7L39.9,16z"/>
			</g>
			<g>
				<path class="st5" d="M39.2,15.1V16c0,0-4.4,0.2-6.1,3C33.1,19,34,15.7,39.2,15.1"/>
			</g>
			<g>
				<path class="st5" d="M42.4,15.1V16c0,0,4.5,0.2,6.2,3C48.6,19,47.7,15.7,42.4,15.1"/>
			</g>
			<g>
				<path class="st1" d="M35.4,20.7c0,3.9-4.5,7.2-10.1,7.2c-5.6,0-10.1-3.2-10.1-7.2c0-3.9,4.5-7.1,10.1-7.1
					C30.9,13.5,35.4,16.7,35.4,20.7"/>
			</g>
			<g>
				<path class="st5" d="M25.3,28c-5.6,0-10.2-3.3-10.2-7.3c0-4,4.6-7.3,10.2-7.3c5.6,0,10.2,3.3,10.2,7.3
					C35.5,24.7,30.9,28,25.3,28z M25.3,13.7c-5.5,0-9.9,3.1-9.9,7c0,3.9,4.5,7,9.9,7c5.5,0,9.9-3.1,9.9-7
					C35.2,16.8,30.8,13.7,25.3,13.7z"/>
			</g>
			<g>
				<path class="st5" d="M24.2,16c0,0,4,3,4.1,5.6c0,0,0.8-2.7-2.8-5.7L24.2,16z"/>
			</g>
			<g>
				<path class="st5" d="M23.5,15.1V16c0,0-4.4,0.2-6.1,3C17.4,19,18.3,15.7,23.5,15.1"/>
			</g>
			<g>
				<path class="st5" d="M26.7,15.1V16c0,0,4.5,0.2,6.2,3C32.9,19,31.9,15.7,26.7,15.1"/>
			</g>
			<g>
				<path class="st1" d="M43,9.9c0,4-4.5,7.1-10.1,7.1c-5.6,0-10.1-3.2-10.1-7.1c0-3.9,4.5-7.2,10.1-7.2C38.5,2.7,43,5.9,43,9.9"/>
			</g>
			<g>
				<path class="st5" d="M32.9,17.2c-5.6,0-10.2-3.3-10.2-7.3c0-4,4.6-7.3,10.2-7.3c5.6,0,10.2,3.3,10.2,7.3
					C43.1,13.9,38.5,17.2,32.9,17.2z M32.9,2.9c-5.5,0-9.9,3.1-9.9,7s4.5,7,9.9,7c5.5,0,9.9-3.1,9.9-7S38.4,2.9,32.9,2.9z"/>
			</g>
			<g>
				<path class="st5" d="M31.8,5.2c0,0,4,3,4.1,5.6c0,0,0.8-2.7-2.8-5.7L31.8,5.2z"/>
			</g>
			<g>
				<path class="st5" d="M31.1,4.3v0.9c0,0-4.4,0.2-6.1,3C25,8.2,25.9,4.9,31.1,4.3"/>
			</g>
			<g>
				<path class="st5" d="M34.3,4.3v0.9c0,0,4.5,0.2,6.2,3C40.5,8.2,39.5,4.9,34.3,4.3"/>
			</g>
		</g>
	</g>
</g>
</svg>
