<?xml version="1.0" encoding="utf-8"?>
<!-- Generator: Adobe Illustrator 19.1.0, SVG Export Plug-In . SVG Version: 6.00 Build 0)  -->
<svg version="1.1" id="Layer_1" xmlns="http://www.w3.org/2000/svg" xmlns:xlink="http://www.w3.org/1999/xlink" x="0px" y="0px"
	 viewBox="0 0 74 57.5" style="enable-background:new 0 0 74 57.5;" xml:space="preserve">
<style type="text/css">
	.st0{fill:#FFFFFF;stroke:#FFFFFF;stroke-width:4;stroke-miterlimit:10;}
	.st1{fill:#145E10;stroke:#145E10;stroke-width:1.5;stroke-miterlimit:10;}
	.st2{fill:#6B6B6B;stroke:#6B6B6B;stroke-width:1.5;stroke-linecap:round;stroke-linejoin:round;stroke-miterlimit:10;}
	.st3{fill:none;stroke:#FFFFFF;stroke-width:4;stroke-linecap:round;stroke-linejoin:round;stroke-miterlimit:10;}
	.st4{fill:#ED1C24;}
</style>
<g>
	<path class="st0" d="M29.2,25.3c-1.1,3.1-1.7,10.8-5.1,15.1c-3.4,4.3-10.8,9.1-13.5,7.6c0,0-1.6-8.8,3.1-15.1
		c4.7-6.3,8.3-7.8,11.6-10.4c0,0-0.6-3.3,0.6-5.3c1.2-2,2.5-0.9,2.9,0.7c0.4,1.6,0.6,2.8,0.6,2.8s2.5-1,4-0.6
		c1.6,0.5,3.4,3.5-2.1,4.5C30.2,24.8,29.2,25.3,29.2,25.3z"/>
	<path class="st1" d="M29.2,25.3c-1.1,3.1-1.7,10.8-5.1,15.1c-3.4,4.3-10.8,9.1-13.5,7.6c0,0-1.6-8.8,3.1-15.1
		c4.7-6.3,8.3-7.8,11.6-10.4c0,0-0.6-3.3,0.6-5.3c1.2-2,2.5-0.9,2.9,0.7c0.4,1.6,0.6,2.8,0.6,2.8s2.5-1,4-0.6
		c1.6,0.5,3.4,3.5-2.1,4.5C30.2,24.8,29.2,25.3,29.2,25.3z"/>
</g>
<g>
	<path class="st0" d="M48.6,27.9c-2.2,2.4-5.7,9.4-10.4,12.1c-4.7,2.7-13.4,4.3-15.3,2c0,0,1.8-8.8,8.5-12.8
		c6.7-4,10.7-4.1,14.7-5.2c0,0,0.7-3.3,2.6-4.7c1.9-1.4,2.7,0.1,2.5,1.7c-0.2,1.6-0.5,2.8-0.5,2.8s2.7,0,4,1c1.3,1,1.9,4.5-3.7,3.4
		C49.8,27.9,48.6,27.9,48.6,27.9z"/>
	<path class="st2" d="M48.6,27.9c-2.2,2.4-5.7,9.4-10.4,12.1c-4.7,2.7-13.4,4.3-15.3,2c0,0,1.8-8.8,8.5-12.8
		c6.7-4,10.7-4.1,14.7-5.2c0,0,0.7-3.3,2.6-4.7c1.9-1.4,2.7,0.1,2.5,1.7c-0.2,1.6-0.5,2.8-0.5,2.8s2.7,0,4,1c1.3,1,1.9,4.5-3.7,3.4
		C49.8,27.9,48.6,27.9,48.6,27.9z"/>
</g>
<g>
	<path class="st0" d="M60.5,37.2c-3,1.4-8.8,6.6-14.2,7.3c-5.4,0.7-14.1-1-14.9-3.9c0,0,4.9-7.5,12.7-8.7c7.8-1.2,11.4,0.2,15.6,0.7
		c0,0,1.9-2.8,4.2-3.4c2.3-0.6,2.4,1.1,1.6,2.5c-0.8,1.4-1.5,2.5-1.5,2.5s2.5,1,3.3,2.4c0.8,1.4,0.1,4.9-4.7,1.7
		C61.6,37.6,60.5,37.2,60.5,37.2z"/>
	<path class="st1" d="M60.5,37.2c-3,1.4-8.8,6.6-14.2,7.3c-5.4,0.7-14.1-1-14.9-3.9c0,0,4.9-7.5,12.7-8.7c7.8-1.2,11.4,0.2,15.6,0.7
		c0,0,1.9-2.8,4.2-3.4c2.3-0.6,2.4,1.1,1.6,2.5c-0.8,1.4-1.5,2.5-1.5,2.5s2.5,1,3.3,2.4c0.8,1.4,0.1,4.9-4.7,1.7
		C61.6,37.6,60.5,37.2,60.5,37.2z"/>
</g>
<path class="st3" d="M0,45.1c0-3.1,2.5-5.6,5.5-5.6h7.9l3.1,6H57l3.4-6h7.9c3.1,0,5.5,2.5,5.5,5.6"/>
<path class="st4" d="M61.5,40.5h6.8c3.1,0,5.8,2.7,5.8,5.8V52c0,3.1-2.7,5.5-5.8,5.5H5.5C2.5,57.5,0,55,0,52v-5.7
	c0-3.1,2.5-5.8,5.5-5.8h7.4l3.1,6h42.1L61.5,40.5z"/>
<g>
	<g>
		<path class="st0" d="M29.2,6.6c-1.1,3.1-1.7,10.8-5.1,15.1c-3.4,4.3-10.8,9.1-13.5,7.6c0,0-1.6-8.8,3.1-15.1
			C18.4,7.9,22,6.4,25.3,3.9c0,0-0.6-3.3,0.6-5.3c1.2-2,2.5-0.9,2.9,0.7C29.3,0.8,29.5,2,29.5,2s2.5-1,4-0.6
			c1.6,0.5,3.4,3.5-2.1,4.5C30.2,6.1,29.2,6.6,29.2,6.6z"/>
		<path class="st1" d="M29.2,6.6c-1.1,3.1-1.7,10.8-5.1,15.1c-3.4,4.3-10.8,9.1-13.5,7.6c0,0-1.6-8.8,3.1-15.1
			C18.4,7.9,22,6.4,25.3,3.9c0,0-0.6-3.3,0.6-5.3c1.2-2,2.5-0.9,2.9,0.7C29.3,0.8,29.5,2,29.5,2s2.5-1,4-0.6
			c1.6,0.5,3.4,3.5-2.1,4.5C30.2,6.1,29.2,6.6,29.2,6.6z"/>
	</g>
	<g>
		<path class="st0" d="M48.6,9.2c-2.2,2.4-5.7,9.4-10.4,12.1c-4.7,2.7-13.4,4.3-15.3,2c0,0,1.8-8.8,8.5-12.8
			c6.7-4,10.7-4.1,14.7-5.2c0,0,0.7-3.3,2.6-4.7c1.9-1.4,2.7,0.1,2.5,1.7c-0.2,1.6-0.5,2.8-0.5,2.8s2.7,0,4,1c1.3,1,1.9,4.5-3.7,3.4
			C49.8,9.2,48.6,9.2,48.6,9.2z"/>
		<path class="st2" d="M48.6,9.2c-2.2,2.4-5.7,9.4-10.4,12.1c-4.7,2.7-13.4,4.3-15.3,2c0,0,1.8-8.8,8.5-12.8
			c6.7-4,10.7-4.1,14.7-5.2c0,0,0.7-3.3,2.6-4.7c1.9-1.4,2.7,0.1,2.5,1.7c-0.2,1.6-0.5,2.8-0.5,2.8s2.7,0,4,1c1.3,1,1.9,4.5-3.7,3.4
			C49.8,9.2,48.6,9.2,48.6,9.2z"/>
	</g>
	<g>
		<path class="st0" d="M60.5,18.5c-3,1.4-8.8,6.6-14.2,7.3c-5.4,0.7-14.1-1-14.9-3.9c0,0,4.9-7.5,12.7-8.7
			c7.8-1.2,11.4,0.2,15.6,0.7c0,0,1.9-2.8,4.2-3.4c2.3-0.6,2.4,1.1,1.6,2.5c-0.8,1.4-1.5,2.5-1.5,2.5s2.5,1,3.3,2.4
			c0.8,1.4,0.1,4.9-4.7,1.7C61.6,18.9,60.5,18.5,60.5,18.5z"/>
		<path class="st1" d="M60.5,18.5c-3,1.4-8.8,6.6-14.2,7.3c-5.4,0.7-14.1-1-14.9-3.9c0,0,4.9-7.5,12.7-8.7
			c7.8-1.2,11.4,0.2,15.6,0.7c0,0,1.9-2.8,4.2-3.4c2.3-0.6,2.4,1.1,1.6,2.5c-0.8,1.4-1.5,2.5-1.5,2.5s2.5,1,3.3,2.4
			c0.8,1.4,0.1,4.9-4.7,1.7C61.6,18.9,60.5,18.5,60.5,18.5z"/>
	</g>
	<path class="st3" d="M0,26.4c0-3.1,2.5-5.6,5.5-5.6h7.9l3.1,6H57l3.4-6h7.9c3.1,0,5.5,2.5,5.5,5.6"/>
	<path class="st4" d="M61.5,21.8h6.8c3.1,0,5.8,2.7,5.8,5.8v5.7c0,3.1-2.7,5.5-5.8,5.5H5.5c-3.1,0-5.5-2.5-5.5-5.5v-5.7
		c0-3.1,2.5-5.8,5.5-5.8h7.4l3.1,6h42.1L61.5,21.8z"/>
</g>
</svg>
