<?xml version="1.0" encoding="utf-8"?>
<!-- Generator: Adobe Illustrator 19.1.0, SVG Export Plug-In . SVG Version: 6.00 Build 0)  -->
<svg version="1.1" id="Layer_1" xmlns="http://www.w3.org/2000/svg" xmlns:xlink="http://www.w3.org/1999/xlink" x="0px" y="0px"
	 viewBox="0 0 64.5 58.6" style="enable-background:new 0 0 64.5 58.6;" xml:space="preserve">
<style type="text/css">
	.st0{fill:#205F30;}
	.st1{fill:#FFFFFF;}
	.st2{fill:#EF3C3A;}
	.st3{fill:none;stroke:#FFFFFF;stroke-linecap:round;stroke-miterlimit:10;}
</style>
<path class="st0" d="M26.3,55.3c0,0-5.4,6.1-12.9,0c-7.5-6.1-6.4-6.8-8.3-9.4c-1.8-2.6-7.3-13.1-3-19.3c4.3-6.1,3.3-5.6,6.8-6.4
	c3.6-0.9,9.5-0.8,13.4,1.8c3.9,2.6,6.6,10,7.8,14.6C31.3,41.4,34.2,52.8,26.3,55.3"/>
<path class="st0" d="M22.8,58.1c-2.2,0.8-5.7,1-9.8-2.3c-5.7-4.6-6.5-6.2-7.4-7.9c-0.3-0.5-0.5-1-1-1.6c-0.8-1.2-2.7-4.5-3.8-8.4
	c-1.3-4.7-1-8.7,0.9-11.4c0.7-1,1.3-1.9,1.8-2.6c2.2-3.2,2.3-3.4,4.8-4l0.5-0.1c3.9-0.9,9.9-0.7,13.8,1.9c4.6,3.1,7.3,12.2,8,14.9
	c1.2,4.5,4.2,16.4-4,19.2C26.2,56.2,24.9,57.4,22.8,58.1 M7.2,21.2C6.3,21.6,6,22,4.3,24.4c-0.5,0.7-1,1.5-1.8,2.6
	c-4.2,5.9,1.4,16.4,3,18.6c0.5,0.7,0.8,1.2,1,1.8c0.8,1.6,1.6,3,7.1,7.5c3,2.4,5.9,3.1,8.8,2.2c2.1-0.7,3.3-2.2,3.4-2.2
	c0.1-0.1,0.1-0.2,0.2-0.2l0.1,0c7.4-2.5,4.5-13.6,3.4-17.9c-1.4-5.4-4.1-12-7.5-14.3c-3.6-2.5-9.3-2.6-13-1.7l-0.5,0.1
	C8,21,7.6,21.1,7.2,21.2"/>
<path class="st1" d="M14,55.2c0,0-7-11.5-7.2-23.4c-0.1-5.8,2.2-9,2.4-7.8c0.2,1.2-3.5,5.1-0.4,13.7c3.1,8.5,8,15.2,12.4,19.7
	c0,0-0.8,1.6-5.7-0.8C15.6,56.6,14.9,56.2,14,55.2z"/>
<path class="st1" d="M25.6,55.5l0.9-1.3c0,0,4.1-2.7,3.3-10.1c-0.8-7.7-7.7-20-11.9-23.3l-2.8-0.4c0,0,6.5,1.8,9.7,17.2
	c0.8,8.3,1,10.4-2.1,14.2C22.7,51.8,22.3,54.7,25.6,55.5"/>
<path class="st1" d="M9.2,42c-0.2,0.1-0.4,0-0.5-0.1c-0.1-0.1-2.9-2.4-4.8-7.6c-0.1-0.3,0-0.6,0.3-0.7c0.3-0.1,0.6,0,0.7,0.3
	c1.8,4.9,4.4,7.1,4.4,7.1c0.2,0.2,0.3,0.5,0.1,0.8C9.3,41.9,9.3,42,9.2,42"/>
<path class="st1" d="M10.3,45.5c-0.1,0.1-0.3,0-0.5-0.1c-0.2-0.1-4.8-3.2-6.1-6c-0.1-0.3,0-0.6,0.3-0.7c0.3-0.1,0.6,0,0.7,0.3
	c1.1,2.5,5.6,5.5,5.7,5.5c0.2,0.2,0.3,0.5,0.2,0.7C10.5,45.4,10.4,45.5,10.3,45.5"/>
<path class="st1" d="M11.6,49.3c-0.1,0-0.3,0-0.4,0c-0.1-0.1-2.7-1.5-3.9-3.1c-0.2-0.2-0.1-0.6,0.1-0.7c0.2-0.2,0.6-0.1,0.7,0.1
	c1,1.5,3.5,2.8,3.5,2.8c0.3,0.1,0.4,0.5,0.2,0.7C11.9,49.1,11.7,49.2,11.6,49.3"/>
<path class="st1" d="M8.7,40.6c-0.1,0-0.2,0-0.3,0C8.1,40.5,7.9,40.3,8,40c0.1-0.4,1.7-8.8,5.4-11.2c0.2-0.2,0.6-0.1,0.7,0.2
	c0.2,0.2,0.1,0.6-0.2,0.7C10.6,31.8,9,40.1,9,40.2C9,40.4,8.8,40.5,8.7,40.6"/>
<path class="st1" d="M10.5,43.9c-0.1,0-0.2,0-0.3,0c-0.3,0-0.5-0.3-0.4-0.6c0.1-0.4,1.5-8.9,5.8-11.3c0.3-0.1,0.6,0,0.7,0.2
	c0.1,0.3,0,0.6-0.2,0.7c-3.8,2.1-5.2,10.4-5.2,10.5C10.8,43.7,10.7,43.8,10.5,43.9"/>
<path class="st1" d="M13,48.1c-0.1,0-0.1,0-0.2,0c-0.3,0-0.5-0.3-0.5-0.6c0-0.1,0.4-3.1,1.9-5.1c0.2-0.2,0.5-0.3,0.7-0.1
	c0.2,0.2,0.3,0.5,0.1,0.8c-1.4,1.8-1.7,4.5-1.7,4.6C13.4,47.8,13.2,48,13,48.1"/>
<path class="st1" d="M16,53.1c-0.3,0.1-0.5,0-0.7-0.3c0,0-1.7-3.9,1.5-7.1c0.2-0.2,0.5-0.2,0.8,0c0.2,0.2,0.2,0.5,0,0.8
	c-2.6,2.7-1.3,5.8-1.2,5.9C16.4,52.7,16.3,53,16,53.1C16,53.1,16,53.1,16,53.1"/>
<path class="st1" d="M24.1,54.9c-0.2,0.1-1.4-1.2-1.6-1.4c-0.1-0.1-1.3-2.1,0.1-3.9c0.1-0.2,0.2-0.3,0.2-0.3
	c-0.1-0.1-0.2-0.1-0.3-0.2c-0.5-0.3-1.2-0.8-1.8-1.9c-0.5-0.9-0.7-1.7-0.9-2.4c-0.3-1.2-0.6-2.1-1.7-3.1c-0.4-0.4-0.7-0.6-0.9-0.8
	c-0.4-0.3-0.7-0.5-0.7-0.9c0-0.4,0.2-0.7,0.7-1.3c0.2-0.2,0.4-0.5,0.7-0.9c1-1.2,2.3-4.4,1.8-7.9c-0.5-3.2-2.4-6-5.8-8.1
	c-0.2-0.2-0.3-0.5-0.2-0.7c0.2-0.2,0.5-0.3,0.7-0.2c3.6,2.3,5.7,5.3,6.2,8.8c0.6,3.9-0.9,7.3-2,8.7c-0.3,0.4-0.6,0.7-0.8,0.9
	c-0.1,0.2-0.3,0.3-0.4,0.4c0.1,0.1,0.2,0.1,0.2,0.2c0.2,0.2,0.6,0.4,1,0.8c1.3,1.2,1.6,2.3,2,3.5c0.2,0.7,0.4,1.4,0.9,2.2
	c0.5,0.9,1,1.3,1.5,1.5c0.3,0.2,0.7,0.5,0.8,0.9c0.1,0.4-0.2,0.8-0.5,1.2c-0.9,1.1,0,2.6,0,2.6c0.2,0.2,0.1,0.6-0.2,0.7
	c0,0-0.1,0-0.1,0"/>
<path class="st1" d="M26.3,41C26.3,41,26.3,41,26.3,41c-0.3,0.1-0.6-0.2-0.7-0.4c-0.6-1.8-2.8-6.6-5.4-6.8c-0.3,0-0.5-0.3-0.5-0.6
	c0-0.3,0.3-0.5,0.6-0.5c3.8,0.2,6.2,7.2,6.3,7.5C26.7,40.5,26.5,40.9,26.3,41"/>
<path class="st1" d="M27,48.3c-0.3,0.1-0.6-0.1-0.7-0.4c0,0-1.7-4.6-5-6.3c-0.3-0.1-0.4-0.5-0.2-0.7c0.1-0.3,0.4-0.4,0.7-0.2
	c3.7,1.9,5.5,6.7,5.5,6.9C27.4,47.8,27.3,48.2,27,48.3C27,48.3,27,48.3,27,48.3"/>
<path class="st1" d="M27,38.3c-0.1,0-0.2,0-0.4,0c-0.3-0.1-0.4-0.4-0.3-0.7c0,0,1.7-3.9-0.6-10.4c-0.1-0.3,0.1-0.4,0.4-0.4h0
	c0.3,0,0.5-0.3,0.6,0c2.4,6.9,0.7,11.1,0.6,11.3C27.3,38.3,27.2,38.2,27,38.3"/>
<path class="st1" d="M28.7,45.8c-0.2,0.1-0.4,0-0.6-0.2C28,45.4,28,45,28.2,44.9c0.1-0.1,2.4-2,1.8-5.3c-0.1-0.3,0.1-0.6,0.4-0.6
	c0.3-0.1,0.6,0.1,0.6,0.4c0.8,4-2.1,6.2-2.2,6.3C28.8,45.7,28.8,45.8,28.7,45.8"/>
<g>
	<path class="st2" d="M49.9,19.3L48,19c0,0-1.7-0.4-2,1.3c-0.3,1.7,1,2,1,2l-0.1,0.6l-1.3-0.2c0,0-1.2,0.3-1.5,1.8
		c-0.3,1.5,1,1.7,1,1.7l-0.3,0.9l-1.2-0.2c0,0-0.9,0.2-0.8,1.7c0,1.6,1.1,1.5,1.1,1.5l-0.2,1.3L43,31.4c0,0-1.2,0.9-1.5,4.5l5,14.6
		l5.8-32.9C52.3,17.7,50.3,16.6,49.9,19.3z"/>
	<path class="st2" d="M53.6,20l1.4,0.2c0,0,1.3,0.1,1,1.9c-0.3,1.7-1.3,1.5-1.3,1.5l-0.1,0.6l1,0.2c0,0,0.8,0.7,0.5,2.2
		c-0.3,1.5-1.3,1.3-1.3,1.3l-0.1,0.9l0.9,0.2c0,0,0.6,0.4,0.1,1.9c-0.5,1.5-1.2,1.1-1.2,1.1l-0.2,1.3l0.5,0.1c0,0,0.6,1.3-0.3,4.7
		l-8,12.3l5.8-32.9C52.3,17.7,54.1,17.3,53.6,20z"/>
	<path class="st0" d="M35.1,29.5c0,0,5.5,3.3,3.8,14.9c0,0-0.5,5.1,4.3,8.9l-0.6,4.4l5.3,0.9l0.5-4.2c0,0,6.4-2.2,7.7-8.3
		c0,0,1.7-9.8,8.3-11.4c0,0-8.9-2.8-17.6,14C46.9,48.6,46,31.8,35.1,29.5z"/>
	<path class="st3" d="M52.6,20.8c0,0,1.4,1.9-0.6,3.6c0,0,2.9,2,0.2,3.8c0,0,2.8,1.9,0.2,4.1c0,0,2,2.4-1.2,4c0,0,2.3,2-0.3,4.3"/>
</g>
<g>
	<path class="st2" d="M22.6,13.2c0,0,10.1,3.4,21-2.3c0,0,2-6.6-8.2-10.9c0,0-9.6-1-13.5,7.1C21.9,7.2,20.3,12.7,22.6,13.2z"/>
	<path class="st2" d="M31.1,16.5c0,0,3.1-1.5,5-0.5c0,0,0.4,3.3,1.7,5.2c0,0,1.9,4.8-3.3,6c0,0-5.5,1.1-4.4-6.1
		C30,21.1,31.1,19.3,31.1,16.5z"/>
	<path class="st1" d="M32.6,1.6c0,0,5.3,3.1,6.6,6.7c0,0,1.3-0.1,2.2-1.5C41.5,6.8,37.7,0.9,32.6,1.6z"/>
	<path class="st1" d="M39.4,9.4l0.2,1.9l1.6-1.3c0,0,0.3-0.2,0.7-2.2L39.4,9.4z"/>
</g>
</svg>
